
<svg xmlns="http://www.w3.org/2000/svg" width="49.484" height="49.484" viewBox="0 0 49.484 49.484">
  <path id="trophy" d="M49.861,10.686H45.737V8.624A4.127,4.127,0,0,0,41.613,4.5H16.871a4.127,4.127,0,0,0-4.124,4.124v2.062H8.624A4.127,4.127,0,0,0,4.5,14.809v6.186a8.258,8.258,0,0,0,8.247,8.247h.663A16.843,16.843,0,0,0,27.18,41.478v8.383H16.871v4.124H41.613V49.861H31.3V41.47A16.425,16.425,0,0,0,45.2,29.242h.537a8.258,8.258,0,0,0,8.247-8.247V14.809a4.127,4.127,0,0,0-4.124-4.124ZM12.747,25.118a4.127,4.127,0,0,1-4.124-4.124V14.809h4.124Zm28.866,0A12.371,12.371,0,0,1,28.859,37.484a12.783,12.783,0,0,1-11.988-12.97V8.624H41.613Zm8.247-4.124a4.127,4.127,0,0,1-4.124,4.124V14.809h4.124Z" transform="translate(-4.5 -4.5)" fill="#fff"/>
</svg>
