<svg xmlns="http://www.w3.org/2000/svg" width="15.624" height="12.276" viewBox="0 0 15.624 12.276">
  <g id="email-new" transform="translate(-2.25 -6.75)">
    <path id="Path_1412" data-name="Path 1412" d="M11.736,16.794H3.366V8.371l6.38,4.417a.558.558,0,0,0,.635,0l6.379-4.414v5.072h1.116V7.866A1.117,1.117,0,0,0,16.758,6.75H3.366A1.117,1.117,0,0,0,2.25,7.866v8.928A1.117,1.117,0,0,0,3.366,17.91h8.37ZM15.53,7.866l-5.468,3.785L4.594,7.866Z" fill="#f26522"/>
    <path id="Path_1413" data-name="Path 1413" d="M29.214,24.732A2.232,2.232,0,1,1,26.982,22.5,2.232,2.232,0,0,1,29.214,24.732Z" transform="translate(-11.34 -7.938)" fill="#f26522"/>
  </g>
</svg>
