<svg xmlns="http://www.w3.org/2000/svg" width="15.199" height="15.195" viewBox="0 0 15.199 15.195">
  <g id="network-globe-line" transform="translate(-3.75 -2)">
    <path id="Path_1415" data-name="Path 1415" d="M11.348,2a7.6,7.6,0,0,0-7.6,7.6,4.563,4.563,0,0,0,.038.722A7.6,7.6,0,1,0,11.348,2Zm0,1.085a6.512,6.512,0,0,1,4.58,1.889v.543a10.045,10.045,0,0,0-6.615.027,1.264,1.264,0,0,0-.619-.331H8.558c-.065-.228-.125-.456-.174-.689s-.076-.44-.1-.662a6.469,6.469,0,0,1,3.066-.776ZM9.719,6.271a9.226,9.226,0,0,1,6.062.071,9.171,9.171,0,0,1-1.688,3.8,1.237,1.237,0,0,0-1.4.309,4.86,4.86,0,0,1-.543-.342A8.683,8.683,0,0,1,9.475,7.269a1.221,1.221,0,0,0,.255-.961ZM7.549,4.317a1.925,1.925,0,0,0,.054.347c.049.239.114.472.179.705a1.237,1.237,0,0,0-.6,1.221,9.942,9.942,0,0,0-2.268,2.04A6.512,6.512,0,0,1,7.554,4.317Zm0,8.525a1.27,1.27,0,0,0-.841.955H6.36a6.48,6.48,0,0,1-1.5-3.7l.06-.1A9.171,9.171,0,0,1,7.532,7.34a1.254,1.254,0,0,0,1.237.342,9.513,9.513,0,0,0,2.9,3.066c.222.147.45.282.678.412a1.259,1.259,0,0,0,.1.608,9.193,9.193,0,0,1-3.365,1.688,1.27,1.27,0,0,0-1.53-.6Zm3.8,3.256a6.469,6.469,0,0,1-3.153-.819l.152-.033a1.27,1.27,0,0,0,.852-.971,10,10,0,0,0,3.8-1.9,1.243,1.243,0,0,0,1.628-.336,9.448,9.448,0,0,0,2.344.3h.288a6.512,6.512,0,0,1-5.91,3.766Zm3.533-4.83a1.264,1.264,0,0,0-.179-.646,9.985,9.985,0,0,0,1.84-4q.407.19.8.423a6.512,6.512,0,0,1,.228,4.45,8.683,8.683,0,0,1-2.686-.212Z" transform="translate(0 0)" fill="#f26522"/>
  </g>
</svg>
