<svg xmlns="http://www.w3.org/2000/svg" width="29.261" height="29.25" viewBox="0 0 29.261 29.25">
  <path id="phone" d="M29.25,32.625h-.191C6.952,31.354,3.814,12.7,3.375,7.009A3.375,3.375,0,0,1,6.48,3.375h6.2a2.25,2.25,0,0,1,2.093,1.417L16.481,9a2.25,2.25,0,0,1-.495,2.43l-2.4,2.419a10.541,10.541,0,0,0,8.527,8.55l2.441-2.419A2.25,2.25,0,0,1,27,19.519l4.241,1.7a2.25,2.25,0,0,1,1.385,2.092v5.94a3.375,3.375,0,0,1-3.375,3.375Zm-22.5-27A1.125,1.125,0,0,0,5.625,6.75v.09c.518,6.66,3.836,22.41,23.558,23.535a1.125,1.125,0,0,0,1.193-1.057V23.31l-4.241-1.7-3.229,3.206-.54-.068c-9.787-1.226-11.115-11.014-11.115-11.115l-.068-.54,3.195-3.229L12.69,5.625Z" transform="translate(-3.364 -3.375)" fill="#f26522"/>
</svg>
