<svg xmlns="http://www.w3.org/2000/svg" width="20.338" height="20.338" viewBox="0 0 20.338 20.338">
  <g id="phone" transform="translate(-3 -3)">
    <path id="Path_1409" data-name="Path 1409" d="M28.169,13.169A10.171,10.171,0,0,0,18,3l0,2.034a8.134,8.134,0,0,1,8.135,8.135Z" transform="translate(-4.831 0)" fill="#f26522"/>
    <path id="Path_1410" data-name="Path 1410" d="M3,12.1V7.017A1.017,1.017,0,0,1,4.017,6H9.1a1.017,1.017,0,0,1,1.017,1.017v4.068A1.017,1.017,0,0,1,9.1,12.1H7.068A8.135,8.135,0,0,0,15.2,20.237V18.2a1.017,1.017,0,0,1,1.017-1.017h4.068A1.017,1.017,0,0,1,21.3,18.2v5.085A1.017,1.017,0,0,1,20.288,24.3H15.2A12.2,12.2,0,0,1,3,12.1Z" transform="translate(0 -0.966)" fill="#f26522"/>
    <path id="Path_1411" data-name="Path 1411" d="M23.636,12.767A6.092,6.092,0,0,1,24.1,15.1H22.27A4.27,4.27,0,0,0,18,10.83V9a6.1,6.1,0,0,1,5.637,3.767Z" transform="translate(-4.831 -1.932)" fill="#f26522"/>
  </g>
</svg>
