<svg xmlns="http://www.w3.org/2000/svg" width="27" height="32.586" viewBox="0 0 27 32.586">
  <g id="pin" transform="translate(-4.5 -1.5)">
    <path id="Path_1363" data-name="Path 1363" d="M24.408,15.408a6,6,0,1,1-6-6,6,6,0,0,1,6,6Zm-3,0a3,3,0,1,1-3-3,3,3,0,0,1,3,3Z" fill="#f26522" fill-rule="evenodd"/>
    <path id="Path_1364" data-name="Path 1364" d="M8.691,24.777a13.5,13.5,0,1,1,19.086-.468l-9.309,9.777L8.691,24.777ZM25.6,22.24l-7.24,7.6-7.6-7.24a10.5,10.5,0,1,1,14.846-.364Z" fill="#f26522" fill-rule="evenodd"/>
  </g>
</svg>
