<svg xmlns="http://www.w3.org/2000/svg" width="19.707" height="19.707" viewBox="0 0 19.707 19.707">
  <path id="question-circle-o" d="M11.29,13.754v2.053a.4.4,0,0,1-.411.411H8.827a.4.4,0,0,1-.411-.411V13.754a.4.4,0,0,1,.411-.411H10.88a.4.4,0,0,1,.411.411ZM14.575,7.39a3.264,3.264,0,0,1-.193,1.155,2.344,2.344,0,0,1-.584.885,5.929,5.929,0,0,1-.667.564q-.276.192-.764.462-.411.231-.6.359a1.6,1.6,0,0,0-.333.308.586.586,0,0,0-.148.372v.411a.4.4,0,0,1-.411.411H8.827a.4.4,0,0,1-.411-.411v-.873a2.455,2.455,0,0,1,.135-.828A2.29,2.29,0,0,1,8.859,9.6a2.134,2.134,0,0,1,.5-.455,5.13,5.13,0,0,1,.526-.327q.2-.1.571-.269a4.994,4.994,0,0,0,.962-.552.769.769,0,0,0,.282-.628,1.1,1.1,0,0,0-.558-.917,2.134,2.134,0,0,0-1.226-.378A2.089,2.089,0,0,0,8.7,6.415,5.868,5.868,0,0,0,7.672,7.48a.379.379,0,0,1-.321.154.393.393,0,0,1-.244-.077L5.722,6.5a.367.367,0,0,1-.154-.257.391.391,0,0,1,.064-.3A5,5,0,0,1,10.11,3.489a4.735,4.735,0,0,1,3.06,1.148A3.45,3.45,0,0,1,14.575,7.39ZM9.854,1.642A7.982,7.982,0,0,0,6.665,2.3,8.1,8.1,0,0,0,2.3,6.665a8.094,8.094,0,0,0,0,6.377A8.1,8.1,0,0,0,6.665,17.41a8.1,8.1,0,0,0,6.376,0,8.1,8.1,0,0,0,4.368-4.368,8.1,8.1,0,0,0,0-6.376A8.1,8.1,0,0,0,13.041,2.3,7.973,7.973,0,0,0,9.854,1.642Zm9.854,8.211A9.64,9.64,0,0,1,18.386,14.8,9.808,9.808,0,0,1,14.8,18.386a9.64,9.64,0,0,1-4.946,1.321,9.64,9.64,0,0,1-4.946-1.321A9.808,9.808,0,0,1,1.321,14.8,9.64,9.64,0,0,1,0,9.854,9.64,9.64,0,0,1,1.321,4.908,9.808,9.808,0,0,1,4.908,1.321,9.64,9.64,0,0,1,9.854,0,9.64,9.64,0,0,1,14.8,1.321a9.808,9.808,0,0,1,3.586,3.586A9.64,9.64,0,0,1,19.707,9.854Z" fill="#fff"/>
</svg>
