<svg xmlns="http://www.w3.org/2000/svg" width="20.339" height="18.304" viewBox="0 0 20.339 18.304">
  <path id="address" d="M20.134,6.035,17.718,4.174a2.031,2.031,0,0,0-.53-.241,2.069,2.069,0,0,0-.576-.1H9.661l.815,5.085h6.137a2.3,2.3,0,0,0,1.106-.34l2.415-1.863a.416.416,0,0,0,.206-.34.421.421,0,0,0-.2-.341ZM8.644,1.8H7.627a.508.508,0,0,0-.508.508V5.868H3.726a2.033,2.033,0,0,0-.577.1,1.96,1.96,0,0,0-.53.24L.2,8.069a.386.386,0,0,0,0,.681L2.62,10.614a2.023,2.023,0,0,0,.53.239,2.049,2.049,0,0,0,.577.1H7.118V19.6a.508.508,0,0,0,.508.508H8.644a.508.508,0,0,0,.508-.508V2.308A.508.508,0,0,0,8.644,1.8Z" transform="translate(0 -1.8)" fill="#f26522"/>
</svg>
